<svg width="115" height="58" viewBox="0 0 115 58" fill="none" xmlns="http://www.w3.org/2000/svg">
<rect width="115" height="58" fill="#1E1E1E"/>
<g id="Delivery Boy App">
<path d="M-711 -1266C-711 -1267.1 -710.105 -1268 -709 -1268H4682C4683.1 -1268 4684 -1267.1 4684 -1266V3280C4684 3281.1 4683.1 3282 4682 3282H-709C-710.104 3282 -711 3281.1 -711 3280V-1266Z" fill="#444444"/>
<path d="M-709 -1267H4682V-1269H-709V-1267ZM4683 -1266V3280H4685V-1266H4683ZM4682 3281H-709V3283H4682V3281ZM-710 3280V-1266H-712V3280H-710ZM-709 3281C-709.552 3281 -710 3280.55 -710 3280H-712C-712 3281.66 -710.657 3283 -709 3283V3281ZM4683 3280C4683 3280.55 4682.55 3281 4682 3281V3283C4683.66 3283 4685 3281.66 4685 3280H4683ZM4682 -1267C4682.55 -1267 4683 -1266.55 4683 -1266H4685C4685 -1267.66 4683.66 -1269 4682 -1269V-1267ZM-709 -1269C-710.657 -1269 -712 -1267.66 -712 -1266H-710C-710 -1266.55 -709.552 -1267 -709 -1267V-1269Z" fill="white" fill-opacity="0.1"/>
<g id="Splash Screen">
<rect width="430" height="932" transform="translate(-69 -433)" fill="#398953"/>
<g id="Group 1">
<path id="image 2 (Traced)" fill-rule="evenodd" clip-rule="evenodd" d="M22.2342 0.260624C21.4504 0.577403 20.546 1.76622 20.3257 2.76913L20.1462 3.58611H15.88C11.9824 3.58611 11.5658 3.63398 11.0603 4.13944C10.3689 4.83082 10.3454 6.12063 11.013 6.72486C11.4692 7.13792 12.8509 7.18273 25.1001 7.18273C32.5697 7.18273 38.8879 7.26186 39.1402 7.35869C40.3874 7.83732 40.0385 10.2352 38.6685 10.602C38.3202 10.6955 30.4715 10.7735 21.2277 10.7755C4.79194 10.7794 4.40821 10.7915 3.86706 11.3327C3.17568 12.0241 3.15216 13.3139 3.81975 13.9181C4.27707 14.3323 5.74283 14.376 19.1317 14.376C33.1239 14.376 33.9627 14.4036 34.3954 14.882C35.0857 15.6445 34.9681 16.7354 34.1243 17.3991C33.4111 17.9604 33.1245 17.9726 20.7062 17.9726C8.38579 17.9726 8.00096 17.9886 7.46368 18.5259C6.7723 19.2173 6.74878 20.5071 7.41637 21.1113C7.87507 21.5263 9.4385 21.5692 24.1545 21.5692C40.0178 21.5692 40.399 21.5817 40.9399 22.1225C41.6349 22.8175 41.6429 23.5366 40.9645 24.3743L40.4358 25.0275L20.6074 25.1658C1.3829 25.3 0.767048 25.3205 0.38636 25.8412C-0.208189 26.6546 -0.103057 27.8331 0.608797 28.3317C1.14525 28.7077 2.97648 28.7625 14.9726 28.7625C22.5343 28.7625 28.928 28.8416 29.1803 28.9384C29.8573 29.1982 30.194 30.2996 29.8363 31.0848C29.3242 32.2091 28.513 32.3591 22.9438 32.3591C18.6079 32.3591 17.7002 32.4269 17.7002 32.7505C17.7002 32.9658 17.4443 35.98 17.1317 39.4491C16.819 42.9182 16.6373 46.052 16.728 46.4133C16.8185 46.7743 17.1934 47.3703 17.5605 47.7377C18.2107 48.3878 18.3457 48.4055 22.6323 48.4055H27.0359L27.2218 47.2441C27.5389 45.261 29.0138 42.5809 30.7363 40.8587C34.4286 37.1661 39.9417 36.1192 44.2358 38.2952C47.2265 39.8107 49.374 43.0601 49.7013 46.5654L49.8731 48.4055H68.0615H86.2498L86.4288 47.2109C86.9246 43.9062 89.774 40.1922 93.0472 38.5848C97.6984 36.3004 102.134 36.7641 105.557 39.8923C107.714 41.8636 108.999 44.7367 108.999 47.5891C108.999 48.3654 109.057 48.4055 110.175 48.4044C111.472 48.4033 112.936 47.6594 113.42 46.7558C113.589 46.4407 114.053 42.3566 114.453 37.6801C115.421 26.3345 115.923 27.8619 108.598 19.8498C105.13 16.0561 102.485 13.4027 101.753 12.9838C100.583 12.3135 100.429 12.2993 93.4132 12.2147L86.2653 12.1284L86.4194 10.8314C87.022 5.75958 87.18 2.40753 86.8538 1.62043C86.1414 -0.100142 87.9386 -0.0121635 53.8877 0.00692622C36.7996 0.0166094 22.5556 0.130869 22.2342 0.260624ZM99.697 15.5889C100.259 15.824 102.331 17.8293 105.057 20.7763L109.5 25.5808L98.9703 25.6533C93.1789 25.6931 88.3857 25.6713 88.319 25.6043C88.2521 25.5377 88.3965 23.264 88.6397 20.5519C88.8831 17.8398 89.0815 15.5274 89.0807 15.4135C89.0779 15.0159 98.7063 15.175 99.697 15.5889ZM36.7703 39.6367C33.9923 40.4235 31.2407 42.75 30.0565 45.3135C29.1814 47.2073 29.1961 51.3694 30.0836 53.0322C30.9305 54.6194 32.4693 56.1031 33.9987 56.8072C35.9555 57.708 39.4526 57.6405 41.5416 56.6612C43.74 55.6306 45.4763 53.9305 46.5423 51.7653C47.3303 50.1648 47.4415 49.6641 47.4415 47.7197C47.4415 45.8458 47.32 45.2535 46.6619 43.9128C45.8236 42.2061 44.2142 40.6816 42.4887 39.9609C41.0544 39.3617 38.2945 39.2051 36.7703 39.6367ZM95.9762 39.6367C94.1087 40.1657 92.3472 41.2961 90.9246 42.8786C89.2724 44.716 88.5259 46.727 88.5259 49.3401C88.5259 58.7635 101.41 60.5779 105.748 51.7653C106.541 50.154 106.646 49.6773 106.636 47.7197C106.622 45.0756 106.008 43.4779 104.381 41.8511C102.285 39.7545 98.8012 38.8369 95.9762 39.6367ZM41.3306 44.9099C43.1095 46.2669 43.3424 48.9793 41.8413 50.859C39.089 54.3056 34.0233 52.9995 34.0233 48.8432C34.0233 47.3567 34.4602 46.3804 35.6183 45.2798C37.1831 43.7927 39.6562 43.6328 41.3306 44.9099ZM99.7637 44.4279C103.633 46.2644 102.118 52.3408 97.6832 52.7671C95.048 53.0203 93.2323 51.4336 93.2303 48.8759C93.2276 45.3824 96.7384 42.9923 99.7637 44.4279Z" fill="white"/>
</g>
</g>
</g>
</svg>
